<?xml version="1.0" standalone="no"?>
<!DOCTYPE svg PUBLIC "-//W3C//DTD SVG 20010904//EN"
 "http://www.w3.org/TR/2001/REC-SVG-20010904/DTD/svg10.dtd">
<svg version="1.0" xmlns="http://www.w3.org/2000/svg"
 width="291.000000pt" height="81.000000pt" viewBox="0 0 291.000000 81.000000"
 preserveAspectRatio="xMidYMid meet">
<metadata>
Created by potrace 1.10, written by Peter Selinger 2001-2011
</metadata>
<g transform="translate(0.000000,81.000000) scale(0.100000,-0.100000)"
fill="#ee6b24" stroke="none">
<path d="M360 795 c-18 -11 -20 -14 -8 -15 11 0 17 -8 16 -22 0 -13 0 -188 1
-390 1 -320 3 -368 16 -368 13 0 15 52 15 405 0 223 -3 405 -7 405 -5 -1 -19
-7 -33 -15z"/>
<path d="M1483 693 c-21 -8 -15 -48 12 -73 25 -24 33 -50 16 -50 -6 0 -13 5
-16 10 -3 6 -13 10 -21 10 -12 0 -12 -4 -4 -21 8 -14 19 -19 38 -17 39 4 42
42 7 78 -16 16 -24 33 -20 40 5 8 10 9 18 1 15 -15 27 -14 27 3 0 20 -30 31
-57 19z"/>
<path d="M1780 685 c7 -8 16 -15 21 -15 5 0 6 7 3 15 -4 8 -13 15 -21 15 -13
0 -13 -3 -3 -15z"/>
<path d="M1707 668 c-4 -12 -1 -25 5 -29 6 -4 8 -18 4 -32 -7 -30 1 -57 18
-57 9 0 12 48 7 128 -2 21 -28 13 -34 -10z"/>
<path d="M530 403 l0 -268 260 0 260 0 0 268 0 267 -260 0 -260 0 0 -267z m58
240 l-37 -4 -4 -122 -3 -122 -2 128 -2 127 43 -2 42 -1 -37 -4z m451 -25 c-2
-31 -2 -31 -6 -5 l-4 27 -187 0 -186 0 -33 -32 c-33 -32 -33 -32 -33 -130 0
-86 2 -98 18 -99 28 -1 -18 -18 -48 -17 -16 0 -19 2 -7 5 15 4 17 18 17 106
l0 101 37 38 37 38 198 0 198 0 -1 -32z m-342 -9 c14 -14 -8 -41 -29 -37 -9 2
-12 -6 -11 -25 2 -19 -2 -25 -10 -20 -9 5 -9 3 -1 -8 7 -9 10 -49 8 -109 -2
-52 -3 -100 -4 -107 0 -7 -19 -13 -47 -15 l-47 -3 2 -64 c0 -42 -2 -61 -9 -54
-6 6 -9 39 -7 74 3 56 5 64 22 61 15 -3 17 1 12 23 -4 16 -3 24 3 21 5 -4 12
-2 16 4 9 15 25 12 25 -6 0 -8 -4 -13 -9 -10 -10 7 -23 -19 -14 -28 4 -3 14
-6 24 -6 15 0 17 12 18 96 1 109 -11 147 -20 64 -5 -51 -6 -49 -7 27 -2 78 -1
84 25 108 31 28 43 31 60 14z m303 -24 c0 -24 5 -35 15 -35 8 0 15 -4 15 -10
0 -5 -8 -6 -17 -3 -16 6 -17 5 -3 -12 14 -17 13 -17 -10 -11 -19 6 -21 5 -10
-3 8 -6 15 -16 15 -23 1 -7 6 -12 13 -11 17 4 15 -7 -5 -29 -14 -16 -33 -18
-150 -18 l-133 0 0 -140 0 -140 -62 0 c-34 0 -58 3 -54 7 3 4 29 6 56 4 l50
-2 0 140 c0 106 3 141 13 142 6 0 66 0 133 -1 93 -1 123 2 133 13 9 12 8 16
-4 21 -9 3 -13 2 -10 -4 4 -6 -28 -10 -87 -11 -51 0 -103 -2 -116 -3 -17 -2
-21 1 -17 13 5 12 4 13 -6 4 -7 -7 -24 -9 -40 -6 l-29 6 0 -107 c0 -58 -4
-106 -9 -106 -5 0 -16 -3 -25 -6 -9 -3 -16 -1 -16 5 0 6 7 11 15 11 12 0 15
18 15 105 l0 105 39 0 c22 0 51 4 65 10 16 6 27 6 31 0 9 -15 89 -12 111 5 12
9 14 14 5 15 -7 0 -11 6 -8 15 4 8 1 17 -5 21 -7 5 -9 -2 -6 -20 5 -24 3 -26
-33 -26 -22 0 -42 0 -46 0 -5 0 -9 5 -9 10 -1 6 -2 15 -3 21 -2 19 -46 6 -45
-14 2 -14 -6 -17 -40 -17 -22 0 -48 5 -56 10 -10 7 0 8 33 4 43 -6 47 -5 47
15 0 17 6 21 30 21 20 0 30 5 30 15 0 11 12 15 51 15 27 0 48 -4 45 -9 -3 -5
0 -11 7 -14 16 -6 19 25 3 35 -7 5 -5 8 5 8 19 0 42 -24 32 -33 -3 -4 1 -7 10
-7 10 0 14 -5 11 -15 -4 -8 -1 -15 5 -15 6 0 11 17 11 40 l0 40 -95 0 c-87 0
-95 -2 -95 -19 0 -16 -8 -20 -42 -23 -30 -2 -43 -8 -43 -18 0 -21 -47 -20 -50
1 -2 12 3 15 16 12 10 -3 19 0 19 6 0 6 17 11 40 11 33 0 40 3 40 20 0 19 7
20 110 20 l110 0 0 -35z m30 -165 c0 -19 -7 -20 -100 -20 l-100 0 0 -30 c0
-34 1 -34 103 -30 66 2 67 2 69 -24 0 -14 1 -31 2 -38 1 -6 -4 -13 -11 -15 -7
-3 -15 10 -19 31 -6 33 -9 36 -40 36 -43 0 -44 -17 -1 -23 31 -4 31 -4 -5 -5
-24 -1 -38 3 -39 11 0 10 -2 10 -6 0 -2 -7 -20 -13 -39 -13 -20 0 -44 -5 -55
-10 -13 -7 -19 -7 -19 0 0 5 6 10 13 10 8 0 9 3 1 8 -14 9 -14 45 -1 53 12 8
2 39 -13 39 -6 0 -10 -43 -10 -115 l0 -115 85 0 c47 0 85 -3 85 -7 0 -5 -40
-7 -90 -5 l-90 3 0 125 c0 114 2 124 18 124 25 0 45 -43 29 -60 -9 -10 -9 -11
1 -6 8 5 12 0 12 -13 0 -22 24 -29 35 -11 3 6 -1 10 -9 10 -12 0 -16 10 -16
40 l0 40 100 0 c82 0 100 3 100 15 0 8 2 15 5 15 3 0 5 -9 5 -20z m-69 -50
l79 0 -2 -107 -2 -108 -3 103 -4 102 -89 0 c-59 0 -90 4 -90 11 0 6 7 8 16 5
9 -3 51 -6 95 -6z m11 -153 c2 -31 0 -57 -4 -57 -5 0 -8 23 -8 51 l0 50 -82
-1 c-101 -2 -100 -2 -95 8 3 4 46 7 95 7 l90 0 4 -58z m-372 46 c0 -5 -5 -15
-10 -23 -8 -12 -10 -11 -10 8 0 12 5 22 10 22 6 0 10 -3 10 -7z m40 -22 c0 -6
-5 -13 -11 -16 -6 -4 -8 -14 -4 -23 7 -20 -15 -34 -32 -20 -10 8 -12 7 -7 -6
3 -9 1 -16 -5 -16 -12 0 -14 11 -5 34 8 21 24 21 24 0 0 -8 5 -12 10 -9 8 5 7
11 0 20 -9 11 -8 18 2 29 15 17 28 20 28 7z m60 -27 c0 -16 -7 -23 -30 -26
-16 -2 -31 0 -33 6 -8 21 11 41 37 41 20 0 26 -5 26 -21z m233 5 c7 -26 -6
-31 -84 -27 -58 3 -64 5 -67 26 -3 21 0 22 71 22 67 0 75 -2 80 -21z"/>
<path d="M830 540 c0 -26 4 -30 28 -30 25 0 29 4 30 30 1 27 -3 30 -29 30 -26
0 -29 -3 -29 -30z"/>
<path d="M1567 603 c10 -40 11 -59 4 -61 -13 -4 -15 -32 -2 -32 16 0 28 24 43
88 13 52 14 62 2 62 -8 0 -14 -10 -14 -24 0 -14 -4 -28 -10 -31 -6 -4 -10 7
-10 24 0 20 -5 31 -14 31 -12 0 -12 -8 1 -57z"/>
<path d="M1634 645 c-4 -9 2 -25 15 -39 27 -28 27 -39 0 -31 -16 5 -20 3 -17
-6 3 -8 16 -14 29 -14 32 0 39 39 10 57 -27 17 -27 31 0 23 15 -5 20 -3 17 6
-7 21 -47 23 -54 4z"/>
<path d="M1766 645 c-18 -47 -2 -95 30 -95 25 0 43 25 29 38 -4 4 -10 1 -12
-5 -6 -18 -33 -16 -33 2 0 9 10 15 26 15 22 0 25 4 22 28 -2 21 -9 28 -29 30
-17 2 -29 -3 -33 -13z m44 -15 c0 -5 -7 -10 -15 -10 -8 0 -15 5 -15 10 0 6 7
10 15 10 8 0 15 -4 15 -10z"/>
<path d="M1850 603 c0 -36 4 -53 13 -53 8 0 11 14 9 45 -3 36 -1 45 12 45 12
0 16 -10 16 -45 0 -25 5 -45 10 -45 6 0 10 20 10 45 0 25 5 45 10 45 6 0 10
-20 10 -45 0 -29 4 -45 13 -45 8 0 11 16 9 54 l-4 53 -54 0 -54 0 0 -54z"/>
<path d="M1987 654 c-9 -9 -9 -66 -1 -88 8 -20 53 -21 61 -1 3 9 2 19 -2 23
-4 4 -10 1 -12 -5 -6 -18 -33 -16 -33 2 0 9 10 15 26 15 22 0 25 4 22 28 -2
20 -9 28 -28 30 -14 2 -29 0 -33 -4z m43 -24 c0 -5 -7 -10 -15 -10 -8 0 -15 5
-15 10 0 6 7 10 15 10 8 0 15 -4 15 -10z"/>
<path d="M2077 654 c-14 -14 -7 -43 13 -54 27 -14 26 -33 -1 -25 -15 5 -20 3
-17 -6 3 -8 17 -15 31 -17 23 -3 27 0 27 22 0 15 -8 31 -20 38 -26 17 -26 31
1 23 15 -5 20 -3 17 6 -5 15 -40 24 -51 13z"/>
<path d="M2284 506 c-3 -9 -3 -27 0 -40 4 -16 0 -29 -14 -41 -22 -20 -26 -55
-8 -73 15 -15 70 -16 85 -1 8 8 13 8 17 0 9 -14 36 -14 36 -1 0 6 -7 10 -16
10 -11 0 -14 5 -9 18 4 9 9 26 12 37 4 20 4 20 -11 1 -9 -11 -16 -25 -16 -30
-1 -14 -39 36 -40 50 0 7 7 15 16 18 10 4 14 15 12 33 -2 22 -9 29 -31 31 -18
2 -29 -2 -33 -12z m42 -11 c4 -8 0 -22 -7 -31 -12 -14 -14 -14 -20 3 -12 34
14 62 27 28z m9 -136 c-9 -13 -39 -11 -53 3 -17 17 -15 45 5 57 14 7 21 3 35
-20 10 -17 16 -34 13 -40z"/>
<path d="M1260 487 c0 -18 -5 -23 -22 -23 -21 1 -23 -4 -23 -49 0 -49 0 -50
33 -52 l32 -1 0 74 c0 43 -4 74 -10 74 -5 0 -10 -10 -10 -23z m0 -72 c0 -24
-5 -35 -15 -35 -10 0 -15 11 -15 35 0 24 5 35 15 35 10 0 15 -11 15 -35z"/>
<path d="M1300 480 c0 -16 5 -30 10 -30 6 0 10 14 10 30 0 17 -4 30 -10 30 -5
0 -10 -13 -10 -30z"/>
<path d="M1345 435 c-1 -55 3 -75 12 -75 9 0 13 20 13 75 0 53 -4 75 -12 75
-9 0 -13 -22 -13 -75z"/>
<path d="M1490 491 c0 -11 -6 -22 -12 -24 -10 -4 -10 -8 1 -15 9 -6 12 -24 9
-51 -2 -29 0 -41 9 -41 8 0 13 15 14 43 1 23 2 57 4 75 2 22 -2 32 -11 32 -8
0 -14 -9 -14 -19z"/>
<path d="M1952 499 c2 -6 8 -10 13 -10 5 0 11 4 13 10 2 6 -4 11 -13 11 -9 0
-15 -5 -13 -11z"/>
<path d="M1903 486 c3 -8 1 -17 -6 -20 -9 -3 -9 -7 -1 -13 6 -4 11 -23 11 -40
2 -51 2 -53 16 -53 11 0 13 44 8 128 -1 6 -8 12 -17 12 -10 0 -14 -6 -11 -14z"/>
<path d="M1390 414 c0 -30 5 -54 10 -54 6 0 10 20 10 45 0 35 4 45 16 45 13 0
15 -9 12 -45 -2 -32 1 -45 10 -45 9 0 12 14 10 53 -3 51 -4 52 -35 54 l-33 1
0 -54z"/>
<path d="M1536 454 c-9 -22 -7 -67 3 -82 4 -8 19 -12 32 -10 26 3 36 38 25 84
-7 28 -50 34 -60 8z m44 -39 c0 -24 -5 -35 -15 -35 -10 0 -15 11 -15 35 0 24
5 35 15 35 10 0 15 -11 15 -35z"/>
<path d="M1610 415 c0 -38 4 -55 13 -55 9 0 12 11 9 36 -4 30 0 40 19 55 l24
19 -32 0 -33 0 0 -55z"/>
<path d="M1680 413 c0 -36 4 -53 13 -53 8 0 11 14 9 45 -3 37 -1 45 13 45 14
0 16 -8 13 -45 -2 -31 1 -45 9 -45 9 0 13 16 13 45 0 25 5 45 10 45 6 0 10
-20 10 -45 0 -25 5 -45 10 -45 6 0 10 24 10 54 l0 53 -55 0 -55 0 0 -54z"/>
<path d="M1817 463 c-15 -14 -6 -23 18 -17 32 8 32 -3 -1 -28 -19 -16 -24 -27
-20 -44 5 -17 2 -24 -8 -24 -9 0 -20 -9 -26 -20 -16 -30 14 -26 38 5 11 14 29
25 41 25 18 0 21 6 21 39 0 22 -3 46 -6 55 -6 16 -45 22 -57 9z m43 -62 c0
-12 -20 -25 -27 -18 -7 7 6 27 18 27 5 0 9 -4 9 -9z"/>
<path d="M1950 415 c0 -71 17 -71 22 0 2 39 -1 55 -9 55 -9 0 -13 -18 -13 -55z"/>
<path d="M1997 464 c-10 -10 -9 -76 2 -92 4 -8 19 -12 32 -10 22 3 24 8 24 53
0 46 -2 50 -25 53 -14 2 -29 0 -33 -4z m43 -49 c0 -24 -5 -35 -15 -35 -10 0
-15 11 -15 35 0 24 5 35 15 35 10 0 15 -11 15 -35z"/>
<path d="M2080 415 c0 -38 4 -55 13 -55 8 0 11 14 9 45 -3 37 -1 45 13 45 14
0 16 -8 13 -45 -2 -31 1 -45 9 -45 9 0 13 17 13 55 l0 55 -35 0 -35 0 0 -55z"/>
<path d="M1210 230 c0 -116 1 -120 21 -120 21 0 21 3 15 77 -8 90 0 88 30 -5
16 -48 27 -68 40 -70 18 -3 19 6 19 118 0 108 -2 120 -17 120 -15 0 -18 -10
-19 -72 l-1 -73 -25 73 c-19 56 -29 72 -44 72 -18 0 -19 -8 -19 -120z"/>
<path d="M2000 330 c0 -15 5 -20 18 -18 9 2 17 10 17 18 0 8 -8 16 -17 18 -13
2 -18 -3 -18 -18z"/>
<path d="M1382 203 l3 -88 53 -2 52 -2 0 89 c0 83 -1 90 -20 90 -18 0 -20 -7
-20 -76 0 -67 -2 -75 -17 -72 -15 3 -18 15 -18 76 0 63 -2 72 -18 72 -16 0
-17 -9 -15 -87z"/>
<path d="M1520 200 c0 -79 2 -90 18 -90 15 0 17 10 17 72 0 61 3 73 18 76 15
3 17 -5 17 -72 0 -69 2 -76 20 -76 17 0 19 8 22 73 2 56 6 72 18 72 12 0 15
-14 14 -72 0 -65 2 -73 18 -73 17 0 19 8 16 88 -3 83 -4 87 -27 90 -13 2 -28
-2 -33 -10 -7 -10 -11 -10 -15 0 -6 15 -45 16 -61 0 -9 -9 -12 -9 -12 0 0 7
-7 12 -15 12 -12 0 -15 -17 -15 -90z"/>
<path d="M1756 274 c-19 -19 -22 -134 -4 -152 20 -20 76 -15 88 7 15 29 12 41
-10 41 -12 0 -20 -7 -20 -16 0 -24 -35 -12 -38 14 -3 20 1 22 39 22 l42 0 -6
41 c-3 23 -11 46 -19 50 -21 14 -55 10 -72 -7z m54 -18 c0 -2 3 -11 6 -20 5
-12 0 -16 -20 -16 -24 0 -35 18 -19 33 7 8 33 10 33 3z"/>
<path d="M1890 200 c0 -83 2 -90 20 -90 17 0 19 6 16 58 -4 62 7 97 30 88 9
-3 14 1 14 14 0 22 -20 26 -38 8 -9 -9 -12 -9 -12 0 0 7 -7 12 -15 12 -12 0
-15 -17 -15 -90z"/>
<path d="M2000 201 c0 -80 2 -91 18 -91 15 0 17 10 15 87 -1 71 -5 89 -17 91
-14 3 -16 -10 -16 -87z"/>
<path d="M2074 266 c-3 -12 -4 -51 -2 -86 l3 -65 35 1 c35 1 36 0 32 -33 -4
-28 -1 -33 17 -33 20 0 21 5 21 118 l0 118 -50 1 c-43 1 -51 -2 -56 -21z m66
-67 c0 -52 -2 -60 -17 -57 -13 2 -19 15 -21 47 -4 52 2 71 23 71 12 0 15 -13
15 -61z"/>
<path d="M2222 203 l3 -88 53 -2 52 -2 0 89 c0 84 -1 90 -21 90 -19 0 -20 -5
-18 -72 2 -66 1 -73 -17 -73 -17 0 -19 8 -19 73 0 62 -2 72 -18 72 -16 0 -17
-9 -15 -87z"/>
<path d="M2382 278 c-7 -7 -12 -40 -12 -78 0 -38 5 -71 12 -78 20 -20 76 -15
88 7 15 29 12 41 -10 41 -12 0 -20 -7 -20 -16 0 -24 -35 -12 -38 14 -3 20 1
22 37 22 40 0 41 1 41 34 0 19 -7 42 -16 50 -18 19 -65 21 -82 4z m61 -38 c4
-16 0 -20 -19 -20 -13 0 -24 6 -24 13 0 32 35 37 43 7z"/>
</g>
</svg>
